HIERARCHY
ROOT root
{
	OFFSET 0.000000 0.000000 0.000000
	CHANNELS 6 Xposition Yposition Zposition Zrotation Yrotation Xrotation
	JOINT lhip
	{
		OFFSET 0.058581 -0.082280 -0.017664
		CHANNELS 3 Zrotation Yrotation Xrotation
		JOINT lknee
		{
			OFFSET 0.043451 -0.386469 0.008037
			CHANNELS 3 Zrotation Yrotation Xrotation
			JOINT lankle
			{
				OFFSET -0.014790 -0.426874 -0.037428
				CHANNELS 3 Zrotation Yrotation Xrotation
				JOINT ltoe
				{
					OFFSET 0.041054 -0.060286 0.122042
					CHANNELS 3 Zrotation Yrotation Xrotation
					End Site
					{
						OFFSET 0.000000 0.000000 0.000000
					}
				}
			}
		}
	}
	JOINT rhip
	{
		OFFSET -0.060310 -0.090513 -0.013543
		CHANNELS 3 Zrotation Yrotation Xrotation
		JOINT rknee
		{
			OFFSET -0.043257 -0.383688 -0.004843
			CHANNELS 3 Zrotation Yrotation Xrotation
			JOINT rankle
			{
				OFFSET 0.019056 -0.420046 -0.034562
				CHANNELS 3 Zrotation Yrotation Xrotation
				JOINT rtoe
				{
					OFFSET -0.034840 -0.062106 0.130323
					CHANNELS 3 Zrotation Yrotation Xrotation
					End Site
					{
						OFFSET 0.000000 0.000000 0.000000
					}
				}
			}
		}
	}
	JOINT lowerback
	{
		OFFSET 0.004439 0.124404 -0.038385
		CHANNELS 3 Zrotation Yrotation Xrotation
		JOINT upperback
		{
			OFFSET 0.004488 0.137956 0.026820
			CHANNELS 3 Zrotation Yrotation Xrotation
			JOINT chest
			{
				OFFSET -0.002265 0.056032 0.002855
				CHANNELS 3 Zrotation Yrotation Xrotation
				JOINT lowerneck
				{
					OFFSET -0.013390 0.211636 -0.033468
					CHANNELS 3 Zrotation Yrotation Xrotation
					JOINT upperneck
					{
						OFFSET 0.010113 0.088937 0.050410
						CHANNELS 3 Zrotation Yrotation Xrotation
						End Site
						{
							OFFSET 0.000000 0.000000 0.000000
						}
					}
				}
				JOINT lclavicle
				{
					OFFSET 0.071702 0.114000 -0.018898
					CHANNELS 3 Zrotation Yrotation Xrotation
					JOINT lshoulder
					{
						OFFSET 0.122921 0.045205 -0.019046
						CHANNELS 3 Zrotation Yrotation Xrotation
						JOINT lelbow
						{
							OFFSET 0.255332 -0.015649 -0.022946
							CHANNELS 3 Zrotation Yrotation Xrotation
							JOINT lwrist
							{
								OFFSET 0.265709 0.012698 -0.007375
								CHANNELS 3 Zrotation Yrotation Xrotation
								End Site
								{
									OFFSET 0.000000 0.000000 0.000000
								}
							}
						}
					}
				}
				JOINT rclavicle
				{
					OFFSET -0.082954 0.112472 -0.023707
					CHANNELS 3 Zrotation Yrotation Xrotation
					JOINT rshoulder
					{
						OFFSET -0.113228 0.046853 -0.008472
						CHANNELS 3 Zrotation Yrotation Xrotation
						JOINT relbow
						{
							OFFSET -0.260127 -0.014369 -0.031269
							CHANNELS 3 Zrotation Yrotation Xrotation
							JOINT rwrist
							{
								OFFSET -0.269108 0.006794 -0.006027
								CHANNELS 3 Zrotation Yrotation Xrotation
								End Site
								{
									OFFSET 0.000000 0.000000 0.000000
								}
							}
						}
					}
				}
			}
		}
	}
}
MOTION
Frames: 10
Frame Time: 0.033333
2.370254 0.697203 1.006548 -84.739337 1.022832 82.248660 -0.113815 -2.808776 2.570226 -1.901268 -13.564116 3.722743 2.273082 7.787422 -7.216186 0.000000 -0.000000 0.000000 -0.511975 -4.210428 1.924362 -2.024059 -0.681518 8.116727 1.008766 -11.071990 -9.735660 0.000000 -0.000000 0.000000 1.040316 2.905131 9.882551 0.262375 -2.293923 4.715250 0.336284 1.084053 -3.068077 3.065360 12.318524 -0.365016 5.671361 15.922943 21.324696 -31.821373 -6.917463 3.056156 -49.747813 -9.535979 12.757623 4.579786 -15.647437 6.721468 -0.955938 -5.006663 0.667535 28.050335 8.438079 7.520695 53.372110 6.056580 19.076265 -3.824324 26.233895 7.296987 0.478042 5.381763 4.012029 
2.372581 0.698131 1.004239 -85.364222 0.186479 82.957817 -1.037961 -3.158740 1.734810 -1.848853 -12.869146 3.663913 2.480799 8.226064 -7.098467 0.000000 -0.000000 0.000000 -1.054370 -3.130837 -0.093224 -2.523016 -1.174621 10.124313 0.996095 -10.729110 -10.200296 0.000000 -0.000000 0.000000 0.417052 2.778494 9.222782 -0.200564 -1.393339 4.532514 0.007297 0.977146 -2.742906 3.763227 14.387027 -0.482561 5.901530 16.694353 21.395393 -31.367374 -6.795219 2.744401 -48.877387 -8.666654 12.650212 2.856776 -18.878559 6.151597 -2.468723 -7.706333 1.187686 28.303189 9.042836 8.111036 53.682359 6.658528 19.112579 -4.311717 25.851177 6.597311 1.940715 6.098731 4.336704 
2.374016 0.699033 1.002799 -85.414366 -0.115952 83.353195 -1.299645 -3.293547 1.171352 -1.966812 -12.683694 3.831579 2.464434 8.300566 -7.135747 0.000000 -0.000000 0.000000 -1.354935 -2.810338 -0.724808 -2.623434 -1.454686 10.344560 1.300102 -10.690989 -10.199350 0.000000 -0.000000 0.000000 0.292748 2.683462 9.210783 -0.442123 -0.999733 3.683437 0.036892 1.076731 -2.413931 3.573668 15.194065 -0.324647 6.022386 17.597754 21.430887 -30.963330 -6.649152 2.731340 -49.690076 -8.595395 12.693952 3.171900 -19.644859 5.758302 -1.092338 -8.077330 0.761523 27.745764 9.015056 8.248691 54.356311 6.853585 19.164827 -4.057458 25.669722 6.785675 1.753463 6.496831 3.674939 
2.373840 0.698912 1.002177 -85.116874 -0.194277 83.489420 -1.318644 -3.301584 0.979994 -2.196487 -12.827875 3.978179 2.381769 8.138251 -7.129703 0.000000 -0.000000 0.000000 -1.596910 -3.042079 -0.736871 -2.552620 -1.599199 10.282247 1.441586 -10.735259 -10.073708 0.000000 -0.000000 0.000000 0.444407 2.838783 8.874005 -0.504103 -0.927799 3.410424 -0.072393 1.074693 -2.122938 3.318065 15.840681 -0.246330 5.920511 18.453309 21.600158 -30.744161 -6.540242 2.674430 -50.115039 -8.672904 13.115753 3.410717 -19.522091 6.242287 -0.669441 -8.258481 0.971347 27.532148 8.771819 8.361387 54.627175 6.961428 19.357331 -3.969506 25.476953 6.874394 1.670884 6.253297 3.607417 
2.374104 0.698973 1.002250 -84.905722 -0.183794 83.472041 -1.295222 -3.239689 0.907617 -2.209072 -12.884007 4.066522 2.474729 8.170451 -7.176211 0.000000 -0.000000 0.000000 -1.641574 -3.076230 -0.689183 -2.534953 -1.735411 10.275017 1.485759 -10.838383 -10.082007 0.000000 -0.000000 0.000000 0.399646 2.822690 8.705809 -0.429737 -0.883566 3.632394 -0.059373 1.233177 -2.188524 3.228869 16.016566 -0.167741 5.837767 18.489718 21.485210 -30.645371 -6.607527 2.635820 -50.328431 -8.697370 13.325584 3.363323 -19.432720 6.799024 -0.491644 -8.457086 1.389757 27.527256 8.886147 8.562598 54.616055 6.954607 19.190266 -4.104537 25.417383 6.580820 1.227139 6.448500 3.568735 
2.374279 0.698698 1.002498 -84.554889 -0.147222 83.395771 -1.309856 -3.264428 0.911430 -2.216640 -12.928704 4.157534 2.266261 8.039778 -7.171096 0.000000 -0.000000 0.000000 -1.693834 -3.178615 -0.508027 -2.490201 -1.900761 10.201156 1.540059 -10.924126 -10.203834 0.000000 -0.000000 0.000000 0.579263 2.786482 8.773621 -0.518971 -0.982562 3.625777 -0.094664 1.332013 -2.279820 3.054572 16.339588 -0.067535 5.742125 18.766945 21.282185 -30.640769 -6.619864 2.782318 -50.391990 -8.548768 13.279097 3.481823 -19.477537 7.070361 -0.658798 -8.443529 1.510821 27.529203 9.012033 8.629328 54.625339 6.759405 19.107047 -4.238022 25.575995 6.541026 1.114846 6.431842 3.451184 
2.374768 0.698940 1.002715 -84.443787 -0.147949 83.402939 -1.315994 -3.336735 0.919110 -2.211577 -13.003765 4.095822 2.209120 8.129860 -7.310503 0.000000 -0.000000 0.000000 -1.666633 -3.134566 -0.574059 -2.559911 -1.999636 10.352871 1.469946 -10.980520 -10.154894 0.000000 -0.000000 0.000000 0.540219 2.764697 8.870030 -0.525517 -0.866157 3.466133 -0.077407 1.460997 -2.323531 2.932332 16.383045 -0.132491 5.630568 18.918078 21.131277 -30.705527 -6.503017 2.661193 -50.380064 -8.385877 13.321521 3.572780 -19.693831 6.882844 -0.649444 -8.314357 1.329525 27.620371 9.092713 8.694466 54.451998 6.770843 19.143423 -4.127022 25.546388 6.595544 1.319017 6.287680 3.409112 
2.376889 0.699406 1.002045 -84.724506 -0.320688 83.293982 -1.434539 -3.267381 0.948299 -2.347530 -12.975315 4.039104 2.242175 8.397686 -6.968637 0.000000 -0.000000 0.000000 -1.742292 -2.404201 -0.945763 -2.610312 -2.132862 10.962507 1.407646 -11.150989 -10.305786 0.000000 -0.000000 0.000000 0.565168 2.434646 9.916271 -0.785042 -0.142084 2.317441 -0.080186 1.710611 -1.985513 2.610407 16.328849 -0.417518 5.488528 19.068278 20.648566 -30.406503 -6.443371 2.383333 -50.773612 -8.407528 13.139985 3.708599 -19.695634 6.292554 -1.905310 -7.964058 0.546293 27.182014 9.230919 8.592564 54.973446 6.889581 19.350359 -4.229440 25.537218 6.710318 1.509019 6.215410 3.020480 
2.375906 0.699290 1.002151 -83.844312 -0.252831 83.490025 -1.439878 -3.458374 0.738127 -2.304628 -13.231201 4.044395 2.164009 8.040400 -6.927731 0.000000 -0.000000 0.000000 -1.733158 -2.928983 -0.795568 -2.638088 -2.353285 10.636984 1.341037 -11.220742 -10.176789 0.000000 -0.000000 0.000000 0.486614 2.547794 9.319155 -0.566482 -0.634783 2.876051 -0.082630 1.738065 -2.429554 2.572506 16.219688 -0.214970 5.646618 19.140408 20.615549 -30.690578 -6.538684 2.631136 -50.673421 -8.283733 13.151072 3.751550 -19.361189 6.011071 -1.509101 -8.108989 0.954012 27.355727 9.316523 8.805473 54.789431 6.647369 19.248786 -4.274143 25.543431 6.532685 1.185967 6.496184 3.478542 
2.375238 0.698858 1.002245 -83.159553 -0.154173 83.485072 -1.414736 -3.664006 0.671129 -2.297882 -13.387074 4.160018 2.244659 7.789494 -6.941373 0.000000 -0.000000 0.000000 -1.724241 -3.206750 -0.541782 -2.633364 -2.598834 10.453886 1.321081 -11.405383 -10.163491 0.000000 -0.000000 0.000000 0.466440 2.600605 9.133470 -0.463493 -0.802948 2.979966 0.026053 1.753464 -2.435100 2.538286 16.216129 -0.182081 5.718433 19.031267 20.416318 -30.856886 -6.638815 2.905198 -50.615697 -8.217726 13.021215 3.863629 -19.363841 6.190602 -1.815355 -8.171285 0.983662 27.419948 9.550811 8.997019 54.625048 6.230478 19.184399 -4.565156 25.870115 6.490546 1.362522 6.488780 3.117754 
